<svg width="42" height="8" viewBox="0 0 42 8" fill="none" xmlns="http://www.w3.org/2000/svg">
<g id="Group">
<g id="Group_2">
<g id="Group_3">
<g id="B_-_91_x2C__Door_x2C__window_x2C__Building_x2C__construction_x2C__repair">
<g id="Group_4">
<g id="Group_5">
<path id="Vector" d="M39.4654 5.92307H2.33336C2.17887 5.92307 2.02438 5.77011 2.02438 5.61715V1.10477C2.02438 0.951809 2.17887 0.798828 2.33336 0.798828H39.4654C39.6199 0.798828 39.7744 0.951809 39.7744 1.10477V5.61715C39.7821 5.77011 39.6199 5.92307 39.4654 5.92307ZM2.72732 5.23474H39.1565V1.41069H2.72732V5.23474Z" fill="#383736"/>
</g>
<g id="Group_6">
<path id="Vector_2" d="M41.4965 7.91157H0.30904C0.154548 7.91157 6.10352e-05 7.75861 6.10352e-05 7.60565V5.61714C6.10352e-05 5.46418 0.154548 5.31122 0.30904 5.31122H41.4965C41.651 5.31122 41.8055 5.46418 41.8055 5.61714V7.60565C41.8055 7.75861 41.651 7.91157 41.4965 7.91157ZM0.695269 7.22324H41.1875V5.92306H0.695269V7.22324Z" fill="#383736"/>
</g>
<g id="Group_7">
<path id="Vector_3" d="M39.465 4.16399H6.31105C6.15656 4.16399 6.00208 4.01101 6.00208 3.85804C6.00208 3.70508 6.15656 3.55212 6.31105 3.55212H39.465C39.6195 3.55212 39.774 3.70508 39.774 3.85804C39.7817 4.01101 39.6195 4.16399 39.465 4.16399Z" fill="#383736"/>
</g>
</g>
</g>
</g>
</g>
</g>
</svg>
