<svg width="43" height="43" viewBox="0 0 43 43" fill="none" xmlns="http://www.w3.org/2000/svg">
<g id="Group">
<g id="Group_2">
<g id="B_-_91_x2C__Door_x2C__window_x2C__Building_x2C__construction_x2C__repair">
<g id="Group_3">
<g id="Group_4">
<path id="Vector" d="M37.4314 36.1773H5.91508C5.76059 36.1773 5.60608 36.0243 5.60608 35.8713V1.07248C5.60608 0.919521 5.76059 0.766541 5.91508 0.766541H37.4314C37.5859 0.766541 37.7403 0.919521 37.7403 1.07248V35.7949C37.7403 36.0243 37.5859 36.1773 37.4314 36.1773ZM6.30131 35.4889H37.1147V1.45489H6.30131V35.4889Z" fill="#383736"/>
</g>
<g id="Group_5">
<path id="Vector_2" d="M40.2356 40.6896H3.10353C2.94904 40.6896 2.79456 40.5366 2.79456 40.3837V35.8713C2.79456 35.7183 2.94904 35.5654 3.10353 35.5654H40.2356C40.3901 35.5654 40.5446 35.7183 40.5446 35.8713V40.3837C40.5523 40.5366 40.3901 40.6896 40.2356 40.6896ZM3.4975 40.0013H39.9266V36.1772H3.4975V40.0013Z" fill="#383736"/>
</g>
<g id="Group_6">
<path id="Vector_3" d="M42.2666 42.6781H1.07912C0.924629 42.6781 0.770142 42.5252 0.770142 42.3722V40.3837C0.770142 40.2307 0.924629 40.0778 1.07912 40.0778H42.2666C42.4211 40.0778 42.5756 40.2307 42.5756 40.3837V42.3722C42.5756 42.5252 42.4211 42.6781 42.2666 42.6781ZM1.46535 41.9898H41.9576V40.6896H1.46535V41.9898Z" fill="#383736"/>
</g>
<g id="Group_7">
<path id="Vector_4" d="M40.2351 38.9305H7.0812C6.9267 38.9305 6.77222 38.7775 6.77222 38.6246C6.77222 38.4716 6.9267 38.3187 7.0812 38.3187H40.2351C40.3896 38.3187 40.5441 38.4716 40.5441 38.6246C40.5518 38.7775 40.3896 38.9305 40.2351 38.9305Z" fill="#383736"/>
</g>
</g>
</g>
</g>
</g>
</svg>
