<svg width="42" height="43" viewBox="0 0 42 43" fill="none" xmlns="http://www.w3.org/2000/svg">
<g id="Group">
<g id="Group_2">
<g id="B_-_91_x2C__Door_x2C__window_x2C__Building_x2C__construction_x2C__repair">
<g id="Group_3">
<g id="Group_4">
<path id="Vector" d="M36.7979 36.1773H5.28166C5.12717 36.1773 4.97266 36.0243 4.97266 35.8713V1.07248C4.97266 0.919521 5.12717 0.766541 5.28166 0.766541H36.7979C36.9524 0.766541 37.1069 0.919521 37.1069 1.07248V35.7949C37.1069 36.0243 36.9524 36.1773 36.7979 36.1773ZM5.66789 35.4889H36.4812V1.45489H5.66789V35.4889Z" fill="#383736"/>
</g>
<g id="Group_5">
<path id="Vector_2" d="M39.6012 40.6896H2.46913C2.31464 40.6896 2.16016 40.5366 2.16016 40.3837V35.8713C2.16016 35.7183 2.31464 35.5654 2.46913 35.5654H39.6012C39.7557 35.5654 39.9102 35.7183 39.9102 35.8713V40.3837C39.9179 40.5366 39.7557 40.6896 39.6012 40.6896ZM2.8631 40.0013H39.2922V36.1772H2.8631V40.0013Z" fill="#383736"/>
</g>
<g id="Group_6">
<path id="Vector_3" d="M38.8983 14.1507H36.7894C36.635 14.1507 36.4805 13.9977 36.4805 13.8448V7.57334C36.4805 7.42038 36.635 7.2674 36.7894 7.2674H38.8983C39.0528 7.2674 39.2072 7.42038 39.2072 7.57334V13.8448C39.2922 13.9977 39.1377 14.1507 38.8983 14.1507ZM37.1062 13.4624H38.512V7.87926H37.1062V13.4624Z" fill="#383736"/>
</g>
<g id="Group_7">
<path id="Vector_4" d="M38.8983 28.5291H36.7894C36.635 28.5291 36.4805 28.3761 36.4805 28.2232V21.9517C36.4805 21.7988 36.635 21.6458 36.7894 21.6458H38.8983C39.0528 21.6458 39.2072 21.7988 39.2072 21.9517V28.2232C39.2922 28.3761 39.1377 28.5291 38.8983 28.5291ZM37.1062 27.8408H38.512V22.2577H37.1062V27.8408Z" fill="#383736"/>
</g>
<g id="Group_8">
<path id="Vector_5" d="M33.2832 36.1773H25.0951C24.9406 36.1773 24.7861 36.0243 24.7861 35.8713V4.36116C24.7861 4.20819 24.9406 4.05524 25.0951 4.05524H33.2832C33.4377 4.05524 33.5922 4.20819 33.5922 4.36116V35.8713C33.5999 36.0243 33.4377 36.1773 33.2832 36.1773ZM25.4813 35.4889H32.9742V4.66708H25.4813V35.4889Z" fill="#383736"/>
</g>
<g id="Group_9">
<path id="Vector_6" d="M25.0948 36.1772H8.78823C8.63374 36.1772 8.47925 36.0242 8.47925 35.8713V4.3611C8.47925 4.20813 8.63374 4.05518 8.78823 4.05518H25.0948C25.2493 4.05518 25.4038 4.20813 25.4038 4.3611V35.8713C25.4811 36.0242 25.3266 36.1772 25.0948 36.1772ZM9.18219 35.4889H24.7859V4.66701H9.18219V35.4889Z" fill="#383736"/>
</g>
<g id="Group_10">
<path id="Vector_7" d="M33.2832 28.7586H25.0951C24.9406 28.7586 24.7861 28.6056 24.7861 28.4527V4.36116C24.7861 4.20819 24.9406 4.05524 25.0951 4.05524H33.2832C33.4377 4.05524 33.5922 4.20819 33.5922 4.36116V28.4527C33.5999 28.6056 33.4377 28.7586 33.2832 28.7586ZM25.4813 28.0703H32.9742V4.66708H25.4813V28.0703Z" fill="#383736"/>
</g>
<g id="Group_11">
<path id="Vector_8" d="M15.4155 16.5215C15.3382 16.5215 15.261 16.5215 15.261 16.4451C15.1065 16.3686 15.0292 16.1392 15.1065 15.9862L19.9421 7.72623C20.0193 7.57327 20.2511 7.4968 20.4133 7.57328C20.5678 7.64976 20.645 7.87919 20.5678 8.03215L15.7322 16.2921C15.6549 16.4451 15.5004 16.5215 15.4155 16.5215Z" fill="#383736"/>
</g>
<g id="Group_12">
<path id="Vector_9" d="M13.392 19.8868C13.3148 19.8868 13.2375 19.8868 13.2375 19.8103C13.083 19.7338 13.0058 19.5044 13.083 19.3514L14.4117 17.1335C14.4889 16.9805 14.7207 16.904 14.8829 16.9805C15.0374 17.057 15.1146 17.2864 15.0374 17.4394L13.7087 19.6573C13.6238 19.8103 13.4693 19.8868 13.392 19.8868Z" fill="#383736"/>
</g>
<g id="Group_13">
<path id="Vector_10" d="M16.3579 19.8103C16.2806 19.8103 16.2034 19.8103 16.2034 19.7338C16.0489 19.6573 15.9716 19.4279 16.0489 19.2749L19.0923 14.1507C19.1696 13.9977 19.4013 13.9212 19.5636 13.9977C19.718 14.0742 19.7953 14.3036 19.718 14.4566L16.6746 19.5808C16.5896 19.7338 16.4351 19.8103 16.3579 19.8103Z" fill="#383736"/>
</g>
<g id="Group_14">
<path id="Vector_11" d="M29.0727 20.9575C28.9954 20.9575 28.9182 20.9575 28.9182 20.881C28.7637 20.8045 28.6865 20.5751 28.7637 20.4221L30.5558 17.4394C30.633 17.2864 30.8648 17.2099 31.027 17.2864C31.1815 17.3629 31.2587 17.5923 31.1815 17.7453L29.3894 20.7281C29.3817 20.9575 29.2272 20.9575 29.0727 20.9575Z" fill="#383736"/>
</g>
<g id="Group_15">
<path id="Vector_12" d="M28.602 24.2462C28.5247 24.2462 28.4475 24.2462 28.4475 24.1697C28.293 24.0932 28.2158 23.8638 28.293 23.7108L30.0851 20.7281C30.1624 20.5751 30.3941 20.4986 30.5563 20.5751C30.7108 20.6516 30.788 20.881 30.7108 21.034L28.9187 24.0168C28.8414 24.1697 28.6792 24.2462 28.602 24.2462Z" fill="#383736"/>
</g>
<g id="Group_16">
<path id="Vector_13" d="M41.6332 42.6781H0.445697C0.291206 42.6781 0.136719 42.5252 0.136719 42.3722V40.3837C0.136719 40.2307 0.291206 40.0778 0.445697 40.0778H41.6332C41.7877 40.0778 41.9422 40.2307 41.9422 40.3837V42.3722C41.9422 42.5252 41.7877 42.6781 41.6332 42.6781ZM0.831927 41.9898H41.3242V40.6896H0.831927V41.9898Z" fill="#383736"/>
</g>
<g id="Group_17">
<path id="Vector_14" d="M39.6016 38.9305H6.44765C6.29316 38.9305 6.13867 38.7775 6.13867 38.6246C6.13867 38.4716 6.29316 38.3187 6.44765 38.3187H39.6016C39.7561 38.3187 39.9105 38.4716 39.9105 38.6246C39.9183 38.7775 39.7561 38.9305 39.6016 38.9305Z" fill="#383736"/>
</g>
</g>
</g>
</g>
</g>
</svg>
