<svg width="42" height="43" viewBox="0 0 42 43" fill="none" xmlns="http://www.w3.org/2000/svg">
<g id="Group">
<g id="Group_2">
<g id="B_-_91_x2C__Door_x2C__window_x2C__Building_x2C__construction_x2C__repair">
<g id="Group_3">
<g id="Group_4">
<path id="Vector" d="M36.8349 36.1772H5.31865C5.16415 36.1772 5.00964 36.0243 5.00964 35.8713V1.07242C5.00964 0.91946 5.16415 0.766479 5.31865 0.766479H36.8349C36.9894 0.766479 37.1439 0.91946 37.1439 1.07242V35.7948C37.1439 36.0242 36.9894 36.1772 36.8349 36.1772ZM5.70487 35.4889H36.5182V1.45483H5.70487V35.4889Z" fill="#383736"/>
</g>
<g id="Group_5">
<path id="Vector_2" d="M39.6394 40.6896H2.50734C2.35285 40.6896 2.19836 40.5366 2.19836 40.3837V35.8713C2.19836 35.7183 2.35285 35.5654 2.50734 35.5654H39.6394C39.7939 35.5654 39.9484 35.7183 39.9484 35.8713V40.3837C39.9561 40.5366 39.7939 40.6896 39.6394 40.6896ZM2.9013 40.0013H39.3304V36.1772H2.9013V40.0013Z" fill="#383736"/>
</g>
<g id="Group_6">
<path id="Vector_3" d="M21.6224 36.1772H8.76043C8.63858 36.1772 8.51672 36.0242 8.51672 35.8713V4.3611C8.51672 4.20813 8.63858 4.05518 8.76043 4.05518H21.6224C21.7443 4.05518 21.8661 4.20813 21.8661 4.3611V35.8713C21.927 36.0242 21.8052 36.1772 21.6224 36.1772ZM9.07117 35.4889H21.3787V4.66701H9.07117V35.4889Z" fill="#383736"/>
<path id="Vector_4" d="M34.1058 36.1772H21.2438C21.122 36.1772 21.0001 36.0242 21.0001 35.8713V4.3611C21.0001 4.20813 21.122 4.05518 21.2438 4.05518H34.1058C34.2277 4.05518 34.3495 4.20813 34.3495 4.3611V35.8713C34.4104 36.0242 34.2886 36.1772 34.1058 36.1772ZM21.5546 35.4889H33.8621V4.66701H21.5546V35.4889Z" fill="#383736"/>
</g>
<g id="Group 46124">
<path id="Vector_5" d="M29.8101 10.7011C29.7329 10.7011 29.6556 10.7011 29.6556 10.6246C29.5011 10.5481 29.4239 10.3187 29.5011 10.1657L31.2932 7.18297C31.3705 7.03001 31.6022 6.95352 31.7644 7.03C31.9189 7.10648 31.9962 7.33593 31.9189 7.48889L30.1268 10.4716C30.1191 10.7011 29.9646 10.7011 29.8101 10.7011Z" fill="#383736"/>
<g id="Group_7">
<path id="Vector_6" d="M29.3394 13.9897C29.2622 13.9897 29.1849 13.9897 29.1849 13.9132C29.0304 13.8368 28.9532 13.6073 29.0304 13.4543L30.8225 10.4716C30.8998 10.3186 31.1315 10.2422 31.2937 10.3186C31.4482 10.3951 31.5255 10.6245 31.4482 10.7775L29.6561 13.7603C29.5789 13.9132 29.4166 13.9897 29.3394 13.9897Z" fill="#383736"/>
</g>
</g>
<g id="Group 46125">
<path id="Vector_7" d="M16.8101 10.7011C16.7329 10.7011 16.6556 10.7011 16.6556 10.6246C16.5011 10.5481 16.4239 10.3187 16.5011 10.1657L18.2932 7.18297C18.3705 7.03001 18.6022 6.95352 18.7644 7.03C18.9189 7.10648 18.9962 7.33593 18.9189 7.48889L17.1268 10.4716C17.1191 10.7011 16.9646 10.7011 16.8101 10.7011Z" fill="#383736"/>
<g id="Group_8">
<path id="Vector_8" d="M16.3394 13.9897C16.2622 13.9897 16.1849 13.9897 16.1849 13.9132C16.0304 13.8368 15.9532 13.6073 16.0304 13.4543L17.8225 10.4716C17.8998 10.3186 18.1315 10.2422 18.2937 10.3186C18.4482 10.3951 18.5255 10.6245 18.4482 10.7775L16.6561 13.7603C16.5789 13.9132 16.4166 13.9897 16.3394 13.9897Z" fill="#383736"/>
</g>
</g>
<g id="Group_9">
<path id="Vector_9" d="M41.6705 42.6781H0.483051C0.328559 42.6781 0.174072 42.5252 0.174072 42.3722V40.3837C0.174072 40.2307 0.328559 40.0778 0.483051 40.0778H41.6705C41.825 40.0778 41.9795 40.2307 41.9795 40.3837V42.3722C41.9795 42.5252 41.825 42.6781 41.6705 42.6781ZM0.86928 41.9898H41.3615V40.6896H0.86928V41.9898Z" fill="#383736"/>
</g>
<g id="Group_10">
<path id="Vector_10" d="M39.6389 38.9305H6.485C6.33051 38.9305 6.17603 38.7775 6.17603 38.6246C6.17603 38.4716 6.33051 38.3187 6.485 38.3187H39.6389C39.7934 38.3187 39.9479 38.4716 39.9479 38.6246C39.9556 38.7775 39.7934 38.9305 39.6389 38.9305Z" fill="#383736"/>
</g>
</g>
</g>
</g>
</g>
</svg>
